<?xml version="1.0" encoding="utf-8"?>
<!-- Generator: Adobe Illustrator 16.0.0, SVG Export Plug-In . SVG Version: 6.00 Build 0)  -->
<!DOCTYPE svg PUBLIC "-//W3C//DTD SVG 1.1//EN" "http://www.w3.org/Graphics/SVG/1.1/DTD/svg11.dtd">
<svg version="1.1" xmlns="http://www.w3.org/2000/svg" xmlns:xlink="http://www.w3.org/1999/xlink" x="0px" y="0px" width="40px"
	 height="40px" viewBox="0 0 40 40" enable-background="new 0 0 40 40" xml:space="preserve">
<g id="Livello_1">
	<g>
		<defs>
			<rect id="SVGID_1_" width="40" height="40"/>
		</defs>
		<clipPath id="SVGID_2_">
			<use xlink:href="#SVGID_1_"  overflow="visible"/>
		</clipPath>
		<path clip-path="url(#SVGID_2_)" fill="#E41D22" d="M20,40.375c11.046,0,20-9.121,20-20.376C40,8.746,31.046-0.374,20-0.374
			c-11.045,0-20,9.12-20,20.373C0,31.254,8.955,40.375,20,40.375"/>
	</g>
	<g>
		<path fill="#FFFFFF" d="M23.465,19.188c0.402,0.203,0.781,0.448,1.133,0.736c1.156,0.956,1.736,2.222,1.736,3.796
			c0,1.735-0.582,3.132-1.742,4.189c-1.162,1.058-2.695,1.587-4.598,1.587c-1.895,0-3.423-0.529-4.585-1.587
			s-1.742-2.454-1.742-4.189c0-1.574,0.583-2.844,1.749-3.809c0.335-0.288,0.705-0.524,1.107-0.711l-0.705-0.47
			c-1.057-0.804-1.584-1.862-1.584-3.174c0-1.515,0.528-2.736,1.584-3.663s2.449-1.39,4.176-1.39c1.727,0,3.12,0.463,4.176,1.39
			s1.584,2.147,1.584,3.663c0,1.312-0.527,2.37-1.584,3.174C23.943,18.899,23.709,19.052,23.465,19.188z M19.994,20.8
			c-0.805,0-1.442,0.263-1.912,0.787s-0.704,1.231-0.704,2.12c0,0.872,0.234,1.563,0.704,2.076c0.47,0.512,1.107,0.768,1.912,0.768
			s1.444-0.256,1.918-0.768c0.473-0.513,0.711-1.204,0.711-2.076c0-0.889-0.24-1.596-0.717-2.12
			C21.436,21.063,20.799,20.8,19.994,20.8z M19.994,18.083c0.696,0,1.249-0.205,1.661-0.616c0.41-0.41,0.615-0.967,0.615-1.669
			c0-0.719-0.205-1.291-0.615-1.714c-0.412-0.423-0.964-0.635-1.661-0.635s-1.25,0.211-1.66,0.635
			c-0.411,0.423-0.617,0.995-0.617,1.714c0,0.702,0.206,1.261,0.617,1.676C18.744,17.88,19.297,18.083,19.994,18.083z"/>
	</g>
</g>
<g id="Livello_2">
</g>
</svg>
