<?xml version="1.0" encoding="utf-8"?>
<!-- Generator: Adobe Illustrator 16.0.0, SVG Export Plug-In . SVG Version: 6.00 Build 0)  -->
<!DOCTYPE svg PUBLIC "-//W3C//DTD SVG 1.1//EN" "http://www.w3.org/Graphics/SVG/1.1/DTD/svg11.dtd">
<svg version="1.1" xmlns="http://www.w3.org/2000/svg" xmlns:xlink="http://www.w3.org/1999/xlink" x="0px" y="0px" width="40px"
	 height="40px" viewBox="0 0 40 40" enable-background="new 0 0 40 40" xml:space="preserve">
<g id="Livello_1">
	<g>
		<defs>
			<rect id="SVGID_1_" width="40" height="40"/>
		</defs>
		<clipPath id="SVGID_2_">
			<use xlink:href="#SVGID_1_"  overflow="visible"/>
		</clipPath>
		<path clip-path="url(#SVGID_2_)" fill="#E41D22" d="M20,40.375c11.046,0,20-9.121,20-20.376C40,8.746,31.046-0.374,20-0.374
			c-11.045,0-20,9.12-20,20.373C0,31.254,8.955,40.375,20,40.375"/>
	</g>
	<g>
		<path fill="#FFFFFF" d="M19.371,29.47c-1.534,0-2.79-0.444-3.767-1.333c-0.978-0.889-1.499-2.057-1.566-3.504h3.56
			c-0.009,0.575,0.161,1.037,0.51,1.384c0.348,0.347,0.812,0.521,1.39,0.521h0.176c1.074,0.009,1.871-0.512,2.391-1.562
			c0.402-0.821,0.654-2.027,0.755-3.618c-0.998,1.041-2.189,1.562-3.573,1.562c-1.635,0-2.975-0.564-4.019-1.693
			c-1.044-1.128-1.566-2.576-1.566-4.344c0-1.876,0.592-3.411,1.774-4.604c1.182-1.192,2.704-1.788,4.565-1.788
			c2.071,0,3.646,0.78,4.724,2.341c1.078,1.561,1.616,3.842,1.616,6.845c0,3.307-0.595,5.793-1.786,7.46
			c-1.106,1.564-2.709,2.347-4.805,2.347L19.371,29.47z M22.743,16.793c0-0.971-0.261-1.778-0.78-2.42
			C21.442,13.731,20.788,13.41,20,13.41c-0.897,0-1.578,0.287-2.044,0.862c-0.465,0.574-0.698,1.415-0.698,2.521
			c0,0.963,0.252,1.738,0.755,2.325c0.503,0.588,1.166,0.881,1.987,0.881c0.822,0,1.485-0.296,1.988-0.887
			C22.491,18.529,22.743,17.756,22.743,16.793z"/>
	</g>
</g>
<g id="Livello_2">
</g>
</svg>
