<?xml version="1.0" encoding="utf-8"?>
<!-- Generator: Adobe Illustrator 16.0.0, SVG Export Plug-In . SVG Version: 6.00 Build 0)  -->
<!DOCTYPE svg PUBLIC "-//W3C//DTD SVG 1.1//EN" "http://www.w3.org/Graphics/SVG/1.1/DTD/svg11.dtd">
<svg version="1.1" xmlns="http://www.w3.org/2000/svg" xmlns:xlink="http://www.w3.org/1999/xlink" x="0px" y="0px" width="40px"
	 height="40px" viewBox="0 0 40 40" enable-background="new 0 0 40 40" xml:space="preserve">
<g id="Livello_1">
	<g>
		<defs>
			<rect id="SVGID_1_" width="40" height="40"/>
		</defs>
		<clipPath id="SVGID_2_">
			<use xlink:href="#SVGID_1_"  overflow="visible"/>
		</clipPath>
		<path clip-path="url(#SVGID_2_)" fill="#E41D22" d="M20,40.375c11.046,0,20-9.121,20-20.376C40,8.746,31.046-0.374,20-0.374
			c-11.045,0-20,9.12-20,20.373C0,31.254,8.955,40.375,20,40.375"/>
	</g>
	<g>
		<path fill="#FFFFFF" d="M11.4,16.241H6.998v-2.603c1.124,0.059,2.13-0.19,3.019-0.749c0.897-0.559,1.577-1.358,2.038-2.399h2.956
			V29h-1.799H11.4V16.241z"/>
		<path fill="#FFFFFF" d="M21.941,27.178c-1.032-1.535-1.552-3.899-1.56-7.09c0.008-3.267,0.528-5.683,1.56-7.249
			c1.031-1.566,2.621-2.349,4.768-2.349c2.164,0,3.76,0.783,4.793,2.349c1.031,1.566,1.547,3.952,1.547,7.16v0.089
			c0.008,3.19-0.506,5.555-1.541,7.09c-1.037,1.537-2.635,2.305-4.799,2.305C24.563,29.482,22.973,28.715,21.941,27.178z
			 M28.746,25.077c0.395-0.974,0.592-2.645,0.592-5.015c0.008-2.429-0.188-4.141-0.586-5.135s-1.08-1.492-2.043-1.492
			c-0.957,0-1.629,0.497-2.02,1.492s-0.59,2.707-0.598,5.135c0,2.37,0.197,4.041,0.592,5.015s1.068,1.46,2.025,1.46
			C27.672,26.537,28.352,26.051,28.746,25.077z"/>
	</g>
</g>
<g id="Livello_2">
</g>
</svg>
