<?xml version="1.0" encoding="utf-8"?>
<!-- Generator: Adobe Illustrator 16.0.0, SVG Export Plug-In . SVG Version: 6.00 Build 0)  -->
<!DOCTYPE svg PUBLIC "-//W3C//DTD SVG 1.1//EN" "http://www.w3.org/Graphics/SVG/1.1/DTD/svg11.dtd">
<svg version="1.1" xmlns="http://www.w3.org/2000/svg" xmlns:xlink="http://www.w3.org/1999/xlink" x="0px" y="0px" width="40px"
	 height="40px" viewBox="0 0 40 40" enable-background="new 0 0 40 40" xml:space="preserve">
<g id="Livello_1">
	<g>
		<defs>
			<rect id="SVGID_1_" width="40" height="40"/>
		</defs>
		<clipPath id="SVGID_2_">
			<use xlink:href="#SVGID_1_"  overflow="visible"/>
		</clipPath>
		<path clip-path="url(#SVGID_2_)" fill="#E41D22" d="M20,40.375c11.046,0,20-9.121,20-20.376C40,8.746,31.046-0.374,20-0.374
			c-11.045,0-20,9.12-20,20.373C0,31.254,8.955,40.375,20,40.375"/>
	</g>
	<g>
		<path fill="#FFFFFF" d="M11.4,16.241H6.998v-2.603c1.124,0.059,2.13-0.19,3.019-0.749c0.897-0.559,1.577-1.358,2.038-2.399h2.956
			V29h-1.799H11.4V16.241z"/>
		<path fill="#FFFFFF" d="M20.243,24.925v-1.574v-1.574l6.78-11.286h2.012h2.014v11.54h2.063v2.895h-2.063V29h-3.547v-4.075H20.243z
			 M27.502,22.03v-7.708l-4.451,7.454L22.9,22.03H27.502z"/>
	</g>
</g>
<g id="Livello_2">
</g>
</svg>
