<?xml version="1.0" encoding="utf-8"?>
<!-- Generator: Adobe Illustrator 16.0.0, SVG Export Plug-In . SVG Version: 6.00 Build 0)  -->
<!DOCTYPE svg PUBLIC "-//W3C//DTD SVG 1.1//EN" "http://www.w3.org/Graphics/SVG/1.1/DTD/svg11.dtd">
<svg version="1.1" xmlns="http://www.w3.org/2000/svg" xmlns:xlink="http://www.w3.org/1999/xlink" x="0px" y="0px" width="40px"
	 height="40px" viewBox="0 0 40 40" enable-background="new 0 0 40 40" xml:space="preserve">
<g id="Livello_1">
	<g>
		<defs>
			<rect id="SVGID_1_" width="40" height="40"/>
		</defs>
		<clipPath id="SVGID_2_">
			<use xlink:href="#SVGID_1_"  overflow="visible"/>
		</clipPath>
		<path clip-path="url(#SVGID_2_)" fill="#E41D22" d="M20,40.375c11.046,0,20-9.121,20-20.376C40,8.746,31.046-0.374,20-0.374
			c-11.045,0-20,9.12-20,20.373C0,31.254,8.955,40.375,20,40.375"/>
	</g>
	<g>
		<path fill="#FFFFFF" d="M11.428,16.241H7.025v-2.603c1.124,0.059,2.13-0.19,3.019-0.749c0.897-0.559,1.577-1.358,2.038-2.399
			h2.956V29h-1.799h-1.812V16.241z"/>
		<path fill="#FFFFFF" d="M27.303,10.503c1.518,0,2.762,0.444,3.734,1.333s1.494,2.057,1.561,3.504h-3.561
			c0.01-0.576-0.156-1.037-0.496-1.384s-0.795-0.521-1.365-0.521h-0.15c-1.082-0.008-1.879,0.516-2.391,1.574
			c-0.402,0.821-0.645,2.019-0.729,3.593c0.973-1.032,2.146-1.549,3.521-1.549c1.627,0,2.959,0.564,3.994,1.693
			s1.553,2.576,1.553,4.344c0,1.877-0.588,3.411-1.768,4.604c-1.178,1.192-2.689,1.788-4.533,1.788c-2.064,0-3.629-0.78-4.699-2.341
			c-1.068-1.561-1.604-3.842-1.604-6.845c0-3.307,0.592-5.793,1.773-7.459c1.098-1.565,2.691-2.347,4.779-2.347L27.303,10.503z
			 M23.969,23.18c0,0.972,0.258,1.778,0.773,2.42s1.16,0.963,1.932,0.963c0.879,0,1.551-0.287,2.012-0.861s0.691-1.415,0.691-2.521
			c0-0.963-0.246-1.738-0.742-2.325c-0.494-0.587-1.148-0.881-1.961-0.881c-0.814,0-1.469,0.296-1.963,0.887
			C24.217,21.443,23.969,22.217,23.969,23.18z"/>
	</g>
</g>
<g id="Livello_2">
</g>
</svg>
