<?xml version="1.0" encoding="utf-8"?>
<!-- Generator: Adobe Illustrator 16.0.0, SVG Export Plug-In . SVG Version: 6.00 Build 0)  -->
<!DOCTYPE svg PUBLIC "-//W3C//DTD SVG 1.1//EN" "http://www.w3.org/Graphics/SVG/1.1/DTD/svg11.dtd">
<svg version="1.1" xmlns="http://www.w3.org/2000/svg" xmlns:xlink="http://www.w3.org/1999/xlink" x="0px" y="0px" width="40px"
	 height="40px" viewBox="0 0 40 40" enable-background="new 0 0 40 40" xml:space="preserve">
<g id="Livello_1">
	<g>
		<defs>
			<rect id="SVGID_1_" width="40" height="40"/>
		</defs>
		<clipPath id="SVGID_2_">
			<use xlink:href="#SVGID_1_"  overflow="visible"/>
		</clipPath>
		<path clip-path="url(#SVGID_2_)" fill="#E41D22" d="M20,40.375c11.046,0,20-9.121,20-20.376C40,8.746,31.046-0.374,20-0.374
			c-11.045,0-20,9.12-20,20.373C0,31.254,8.955,40.375,20,40.375"/>
	</g>
	<g>
		<path fill="#FFFFFF" d="M18.633,16.305c0,1.405-0.325,2.568-0.975,3.491c-0.65,0.923-1.868,1.959-3.654,3.11
			c-1.652,1.058-2.78,2.015-3.384,2.869l-0.013,0.025h8.025V29H6.13v-0.003c0-1.692,0.423-3.144,1.271-4.354
			c0.847-1.209,2.44-2.644,4.78-4.302c1.048-0.736,1.786-1.411,2.214-2.025c0.427-0.613,0.641-1.297,0.641-2.05
			c0-0.821-0.235-1.481-0.704-1.98c-0.47-0.5-1.09-0.749-1.862-0.749c-0.822,0-1.463,0.313-1.924,0.939
			c-0.461,0.626-0.675,1.478-0.642,2.552H6.369c-0.059-2.006,0.463-3.597,1.566-4.773s2.623-1.765,4.56-1.765
			c1.803,0,3.278,0.542,4.428,1.625C18.063,13.199,18.633,14.595,18.633,16.305z"/>
		<path fill="#FFFFFF" d="M28.936,15.886c0-0.719-0.205-1.301-0.617-1.746c-0.41-0.444-0.955-0.667-1.635-0.667
			c-0.789,0-1.398,0.252-1.83,0.755s-0.656,1.221-0.674,2.152h-3.32c0.025-1.887,0.564-3.341,1.617-4.361s2.533-1.53,4.445-1.53
			c1.645,0,2.99,0.482,4.039,1.447c1.047,0.965,1.572,2.205,1.572,3.72c0,1.312-0.545,2.387-1.635,3.225l-0.492,0.33
			c0.42,0.161,0.789,0.372,1.107,0.635c1.049,0.821,1.572,2.057,1.572,3.707c0,1.819-0.568,3.263-1.703,4.329
			c-1.137,1.066-2.67,1.6-4.598,1.6c-1.988,0-3.529-0.527-4.623-1.58c-1.095-1.055-1.655-2.555-1.68-4.501h3.51
			c0.016,1.041,0.25,1.835,0.697,2.38c0.449,0.547,1.098,0.819,1.943,0.819c0.822,0,1.484-0.275,1.988-0.825
			c0.502-0.55,0.754-1.273,0.754-2.171c0-0.787-0.252-1.422-0.754-1.904c-0.445-0.415-1.006-0.647-1.686-0.698
			c-0.377-0.025-0.729-0.04-1.051-0.045c-0.322-0.004-0.531,0.007-0.623,0.032v-2.691c0.102,0.017,0.314,0.019,0.643,0.007
			c0.326-0.014,0.674-0.041,1.043-0.083c0.57-0.067,1.023-0.267,1.359-0.597C28.725,17.219,28.936,16.639,28.936,15.886z"/>
	</g>
</g>
<g id="Livello_2">
</g>
</svg>
