<?xml version="1.0" encoding="utf-8"?>
<!-- Generator: Adobe Illustrator 16.0.0, SVG Export Plug-In . SVG Version: 6.00 Build 0)  -->
<!DOCTYPE svg PUBLIC "-//W3C//DTD SVG 1.1//EN" "http://www.w3.org/Graphics/SVG/1.1/DTD/svg11.dtd">
<svg version="1.1" xmlns="http://www.w3.org/2000/svg" xmlns:xlink="http://www.w3.org/1999/xlink" x="0px" y="0px" width="40px"
	 height="40px" viewBox="0 0 40 40" enable-background="new 0 0 40 40" xml:space="preserve">
<g id="Livello_1">
	<g>
		<defs>
			<rect id="SVGID_1_" width="40" height="40"/>
		</defs>
		<clipPath id="SVGID_2_">
			<use xlink:href="#SVGID_1_"  overflow="visible"/>
		</clipPath>
		<path clip-path="url(#SVGID_2_)" fill="#E41D22" d="M20,40.375c11.046,0,20-9.121,20-20.376C40,8.746,31.046-0.374,20-0.374
			c-11.045,0-20,9.12-20,20.373C0,31.254,8.955,40.375,20,40.375"/>
	</g>
	<g>
		<path fill="#FFFFFF" d="M18.633,16.305c0,1.405-0.325,2.568-0.975,3.491c-0.65,0.923-1.868,1.959-3.654,3.11
			c-1.652,1.058-2.78,2.015-3.384,2.869l-0.013,0.025h8.025V29H6.13v-0.003c0-1.692,0.423-3.144,1.271-4.354
			c0.847-1.209,2.44-2.644,4.78-4.302c1.048-0.736,1.786-1.411,2.214-2.025c0.427-0.613,0.641-1.297,0.641-2.05
			c0-0.821-0.235-1.481-0.704-1.98c-0.47-0.5-1.09-0.749-1.862-0.749c-0.822,0-1.463,0.313-1.924,0.939
			c-0.461,0.626-0.675,1.478-0.642,2.552H6.369c-0.059-2.006,0.463-3.597,1.566-4.773s2.623-1.765,4.56-1.765
			c1.803,0,3.278,0.542,4.428,1.625C18.063,13.199,18.633,14.595,18.633,16.305z"/>
		<path fill="#FFFFFF" d="M33.086,22.894c0,2.022-0.602,3.627-1.805,4.812s-2.832,1.777-4.887,1.777
			c-1.635,0-2.986-0.484-4.051-1.453c-1.064-0.97-1.685-2.283-1.861-3.942h3.623c0.092,0.821,0.359,1.445,0.805,1.872
			c0.443,0.428,1.053,0.642,1.824,0.642c0.787,0,1.426-0.309,1.912-0.927s0.729-1.431,0.729-2.438c0-1.032-0.246-1.864-0.742-2.494
			c-0.494-0.631-1.145-0.946-1.949-0.946c-0.504,0-0.971,0.114-1.402,0.343s-0.766,0.537-1,0.927l-3.17-0.152l1.205-10.055h10.016
			v3.085h-7.439l-0.617,3.923c1.006-0.635,2.096-0.952,3.268-0.952c1.625,0,2.959,0.559,3.998,1.676
			C32.57,19.707,33.086,21.142,33.086,22.894z"/>
	</g>
</g>
<g id="Livello_2">
</g>
</svg>
