<?xml version="1.0" encoding="utf-8"?>
<!-- Generator: Adobe Illustrator 16.0.0, SVG Export Plug-In . SVG Version: 6.00 Build 0)  -->
<!DOCTYPE svg PUBLIC "-//W3C//DTD SVG 1.1//EN" "http://www.w3.org/Graphics/SVG/1.1/DTD/svg11.dtd">
<svg version="1.1" xmlns="http://www.w3.org/2000/svg" xmlns:xlink="http://www.w3.org/1999/xlink" x="0px" y="0px" width="40px"
	 height="40px" viewBox="0 0 40 40" enable-background="new 0 0 40 40" xml:space="preserve">
<g id="Livello_1">
	<g>
		<defs>
			<rect id="SVGID_1_" width="40" height="40"/>
		</defs>
		<clipPath id="SVGID_2_">
			<use xlink:href="#SVGID_1_"  overflow="visible"/>
		</clipPath>
		<path clip-path="url(#SVGID_2_)" fill="#E41D22" d="M20,40.375c11.046,0,20-9.121,20-20.376C40,8.746,31.046-0.374,20-0.374
			c-11.045,0-20,9.12-20,20.373C0,31.254,8.955,40.375,20,40.375"/>
	</g>
	<g>
		<path fill="#FFFFFF" d="M18.633,16.305c0,1.405-0.325,2.568-0.975,3.491c-0.65,0.923-1.868,1.959-3.654,3.11
			c-1.652,1.058-2.78,2.015-3.384,2.869l-0.013,0.025h8.025V29H6.13v-0.003c0-1.692,0.423-3.144,1.271-4.354
			c0.847-1.209,2.44-2.644,4.78-4.302c1.048-0.736,1.786-1.411,2.214-2.025c0.427-0.613,0.641-1.297,0.641-2.05
			c0-0.821-0.235-1.481-0.704-1.98c-0.47-0.5-1.09-0.749-1.862-0.749c-0.822,0-1.463,0.313-1.924,0.939
			c-0.461,0.626-0.675,1.478-0.642,2.552H6.369c-0.059-2.006,0.463-3.597,1.566-4.773s2.623-1.765,4.56-1.765
			c1.803,0,3.278,0.542,4.428,1.625C18.063,13.199,18.633,14.595,18.633,16.305z"/>
		<path fill="#FFFFFF" d="M27.514,10.503c1.518,0,2.764,0.444,3.736,1.333s1.492,2.057,1.559,3.504H29.25
			c0.008-0.576-0.158-1.037-0.498-1.384c-0.338-0.347-0.793-0.521-1.363-0.521h-0.152c-1.08-0.008-1.877,0.516-2.389,1.574
			c-0.402,0.821-0.646,2.019-0.73,3.593c0.973-1.032,2.146-1.549,3.523-1.549c1.625,0,2.957,0.564,3.992,1.693
			c1.037,1.129,1.555,2.576,1.555,4.344c0,1.877-0.59,3.411-1.768,4.604s-2.689,1.788-4.535,1.788c-2.063,0-3.629-0.78-4.697-2.341
			c-1.07-1.561-1.604-3.842-1.604-6.845c0-3.307,0.591-5.793,1.774-7.459c1.098-1.565,2.691-2.347,4.779-2.347L27.514,10.503z
			 M24.18,23.18c0,0.972,0.258,1.778,0.775,2.42c0.516,0.642,1.158,0.963,1.93,0.963c0.881,0,1.551-0.287,2.014-0.861
			c0.461-0.574,0.691-1.415,0.691-2.521c0-0.963-0.248-1.738-0.742-2.325c-0.496-0.587-1.148-0.881-1.963-0.881
			c-0.813,0-1.467,0.296-1.963,0.887C24.428,21.443,24.18,22.217,24.18,23.18z"/>
	</g>
</g>
<g id="Livello_2">
</g>
</svg>
