<?xml version="1.0" encoding="utf-8"?>
<!-- Generator: Adobe Illustrator 16.0.0, SVG Export Plug-In . SVG Version: 6.00 Build 0)  -->
<!DOCTYPE svg PUBLIC "-//W3C//DTD SVG 1.1//EN" "http://www.w3.org/Graphics/SVG/1.1/DTD/svg11.dtd">
<svg version="1.1" xmlns="http://www.w3.org/2000/svg" xmlns:xlink="http://www.w3.org/1999/xlink" x="0px" y="0px" width="40px"
	 height="40px" viewBox="0 0 40 40" enable-background="new 0 0 40 40" xml:space="preserve">
<g id="Livello_1">
	<g>
		<defs>
			<rect id="SVGID_1_" width="40" height="40"/>
		</defs>
		<clipPath id="SVGID_2_">
			<use xlink:href="#SVGID_1_"  overflow="visible"/>
		</clipPath>
		<path clip-path="url(#SVGID_2_)" fill="#E41D22" d="M20,40.375c11.046,0,20-9.121,20-20.376C40,8.746,31.046-0.374,20-0.374
			c-11.045,0-20,9.12-20,20.373C0,31.254,8.955,40.375,20,40.375"/>
	</g>
	<g>
		<path fill="#FFFFFF" d="M18.633,16.305c0,1.405-0.325,2.568-0.975,3.491c-0.65,0.923-1.868,1.959-3.654,3.11
			c-1.652,1.058-2.78,2.015-3.384,2.869l-0.013,0.025h8.025V29H6.13v-0.003c0-1.692,0.423-3.144,1.271-4.354
			c0.847-1.209,2.44-2.644,4.78-4.302c1.048-0.736,1.786-1.411,2.214-2.025c0.427-0.613,0.641-1.297,0.641-2.05
			c0-0.821-0.235-1.481-0.704-1.98c-0.47-0.5-1.09-0.749-1.862-0.749c-0.822,0-1.463,0.313-1.924,0.939
			c-0.461,0.626-0.675,1.478-0.642,2.552H6.369c-0.059-2.006,0.463-3.597,1.566-4.773s2.623-1.765,4.56-1.765
			c1.803,0,3.278,0.542,4.428,1.625C18.063,13.199,18.633,14.595,18.633,16.305z"/>
		<path fill="#FFFFFF" d="M26.27,29.47c-1.535,0-2.791-0.444-3.768-1.333c-0.978-0.889-1.5-2.057-1.567-3.504h3.559
			c-0.008,0.575,0.162,1.037,0.51,1.384s0.813,0.521,1.391,0.521h0.176c1.074,0.009,1.869-0.512,2.391-1.562
			c0.402-0.821,0.654-2.027,0.754-3.618c-0.998,1.041-2.188,1.562-3.572,1.562c-1.635,0-2.975-0.564-4.02-1.693
			c-1.043-1.128-1.565-2.576-1.565-4.344c0-1.876,0.591-3.411,1.774-4.604c1.182-1.192,2.703-1.788,4.566-1.788
			c2.07,0,3.645,0.78,4.723,2.341s1.615,3.842,1.615,6.845c0,3.307-0.594,5.793-1.785,7.46c-1.107,1.564-2.709,2.347-4.805,2.347
			L26.27,29.47z M29.641,16.793c0-0.971-0.262-1.778-0.781-2.42c-0.52-0.642-1.174-0.963-1.961-0.963
			c-0.898,0-1.58,0.287-2.045,0.862c-0.465,0.574-0.697,1.415-0.697,2.521c0,0.963,0.25,1.738,0.754,2.325
			c0.504,0.588,1.166,0.881,1.988,0.881c0.82,0,1.482-0.296,1.986-0.887C29.389,18.529,29.641,17.756,29.641,16.793z"/>
	</g>
</g>
<g id="Livello_2">
</g>
</svg>
