<?xml version="1.0" encoding="utf-8"?>
<!-- Generator: Adobe Illustrator 16.0.0, SVG Export Plug-In . SVG Version: 6.00 Build 0)  -->
<!DOCTYPE svg PUBLIC "-//W3C//DTD SVG 1.1//EN" "http://www.w3.org/Graphics/SVG/1.1/DTD/svg11.dtd">
<svg version="1.1" xmlns="http://www.w3.org/2000/svg" xmlns:xlink="http://www.w3.org/1999/xlink" x="0px" y="0px" width="40px"
	 height="40px" viewBox="0 0 40 40" enable-background="new 0 0 40 40" xml:space="preserve">
<g id="Livello_1">
	<g>
		<defs>
			<rect id="SVGID_1_" width="40" height="40"/>
		</defs>
		<clipPath id="SVGID_2_">
			<use xlink:href="#SVGID_1_"  overflow="visible"/>
		</clipPath>
		<path clip-path="url(#SVGID_2_)" fill="#E41D22" d="M20,40.375c11.046,0,20-9.121,20-20.376C40,8.746,31.046-0.374,20-0.374
			c-11.045,0-20,9.12-20,20.373C0,31.254,8.955,40.375,20,40.375"/>
	</g>
	<g>
		<path fill="#FFFFFF" d="M14.615,15.886c0-0.719-0.206-1.301-0.616-1.746s-0.956-0.667-1.635-0.667
			c-0.788,0-1.398,0.252-1.83,0.755c-0.432,0.503-0.656,1.221-0.673,2.152H6.54c0.025-1.887,0.564-3.341,1.616-4.361
			s2.535-1.53,4.447-1.53c1.644,0,2.989,0.482,4.038,1.447s1.572,2.205,1.572,3.72c0,1.312-0.545,2.387-1.635,3.225l-0.49,0.33
			c0.419,0.161,0.788,0.372,1.107,0.635c1.048,0.821,1.572,2.057,1.572,3.707c0,1.819-0.568,3.263-1.705,4.329s-2.669,1.6-4.598,1.6
			c-1.987,0-3.528-0.527-4.623-1.58c-1.094-1.055-1.654-2.555-1.679-4.501h3.509c0.017,1.041,0.25,1.835,0.698,2.38
			c0.449,0.547,1.096,0.819,1.943,0.819c0.822,0,1.484-0.275,1.987-0.825c0.503-0.55,0.755-1.273,0.755-2.171
			c0-0.787-0.251-1.422-0.755-1.904c-0.444-0.415-1.006-0.647-1.686-0.698c-0.377-0.025-0.728-0.04-1.05-0.045
			c-0.323-0.004-0.53,0.007-0.623,0.032v-2.691c0.101,0.017,0.314,0.019,0.642,0.007c0.327-0.014,0.675-0.041,1.044-0.083
			c0.57-0.067,1.023-0.267,1.358-0.597C14.406,17.219,14.615,16.639,14.615,15.886z"/>
		<path fill="#FFFFFF" d="M22.188,27.178c-1.031-1.535-1.551-3.899-1.56-7.09c0.008-3.267,0.528-5.683,1.56-7.249
			c1.032-1.566,2.621-2.349,4.768-2.349c2.164,0,3.761,0.783,4.793,2.349c1.031,1.566,1.547,3.952,1.547,7.16v0.089
			c0.008,3.19-0.505,5.555-1.541,7.09c-1.036,1.537-2.635,2.305-4.799,2.305C24.809,29.482,23.22,28.715,22.188,27.178z
			 M28.993,25.077c0.394-0.974,0.591-2.645,0.591-5.015c0.009-2.429-0.187-4.141-0.585-5.135s-1.08-1.492-2.044-1.492
			c-0.956,0-1.629,0.497-2.019,1.492c-0.391,0.995-0.59,2.707-0.598,5.135c0,2.37,0.197,4.041,0.591,5.015
			c0.395,0.974,1.069,1.46,2.025,1.46C27.919,26.537,28.599,26.051,28.993,25.077z"/>
	</g>
</g>
<g id="Livello_2">
</g>
</svg>
