<?xml version="1.0" encoding="utf-8"?>
<!-- Generator: Adobe Illustrator 16.0.0, SVG Export Plug-In . SVG Version: 6.00 Build 0)  -->
<!DOCTYPE svg PUBLIC "-//W3C//DTD SVG 1.1//EN" "http://www.w3.org/Graphics/SVG/1.1/DTD/svg11.dtd">
<svg version="1.1" xmlns="http://www.w3.org/2000/svg" xmlns:xlink="http://www.w3.org/1999/xlink" x="0px" y="0px" width="40px"
	 height="40px" viewBox="0 0 40 40" enable-background="new 0 0 40 40" xml:space="preserve">
<g id="Livello_1">
	<g>
		<defs>
			<rect id="SVGID_1_" width="40" height="40"/>
		</defs>
		<clipPath id="SVGID_2_">
			<use xlink:href="#SVGID_1_"  overflow="visible"/>
		</clipPath>
		<path clip-path="url(#SVGID_2_)" fill="#F3E002" d="M20,40.375c11.046,0,20-9.121,20-20.376C40,8.746,31.046-0.374,20-0.374
			c-11.045,0-20,9.12-20,20.373C0,31.254,8.955,40.375,20,40.375"/>
	</g>
	<g>
		<path fill="#010202" d="M14.615,15.886c0-0.719-0.206-1.301-0.616-1.746s-0.956-0.667-1.635-0.667
			c-0.788,0-1.398,0.252-1.83,0.755c-0.432,0.503-0.656,1.221-0.673,2.152H6.54c0.025-1.887,0.564-3.341,1.616-4.361
			s2.535-1.53,4.447-1.53c1.644,0,2.989,0.482,4.038,1.447s1.572,2.205,1.572,3.72c0,1.312-0.545,2.387-1.635,3.225l-0.49,0.33
			c0.419,0.161,0.788,0.372,1.107,0.635c1.048,0.821,1.572,2.057,1.572,3.707c0,1.819-0.568,3.263-1.705,4.329s-2.669,1.6-4.598,1.6
			c-1.987,0-3.528-0.527-4.623-1.58c-1.094-1.055-1.654-2.555-1.679-4.501h3.509c0.017,1.041,0.25,1.835,0.698,2.38
			c0.449,0.547,1.096,0.819,1.943,0.819c0.822,0,1.484-0.275,1.987-0.825c0.503-0.55,0.755-1.273,0.755-2.171
			c0-0.787-0.251-1.422-0.755-1.904c-0.444-0.415-1.006-0.647-1.686-0.698c-0.377-0.025-0.728-0.04-1.05-0.045
			c-0.323-0.004-0.53,0.007-0.623,0.032v-2.691c0.101,0.017,0.314,0.019,0.642,0.007c0.327-0.014,0.675-0.041,1.044-0.083
			c0.57-0.067,1.023-0.267,1.358-0.597C14.406,17.219,14.615,16.639,14.615,15.886z"/>
		<path fill="#010202" d="M32.968,16.305c0,1.405-0.325,2.568-0.975,3.491c-0.65,0.923-1.868,1.959-3.654,3.11
			c-1.652,1.058-2.78,2.015-3.384,2.869l-0.013,0.025h8.025V29H20.464v-0.003c0-1.692,0.423-3.144,1.27-4.354
			c0.848-1.209,2.44-2.644,4.78-4.302c1.049-0.736,1.786-1.411,2.214-2.025c0.428-0.613,0.642-1.297,0.642-2.05
			c0-0.821-0.234-1.481-0.704-1.98s-1.091-0.749-1.861-0.749c-0.822,0-1.464,0.313-1.925,0.939
			c-0.462,0.626-0.676,1.478-0.642,2.552h-3.535c-0.059-2.006,0.463-3.597,1.566-4.773s2.623-1.765,4.56-1.765
			c1.803,0,3.279,0.542,4.428,1.625C32.397,13.199,32.968,14.595,32.968,16.305z"/>
	</g>
</g>
<g id="Livello_2">
</g>
</svg>
