<?xml version="1.0" encoding="utf-8"?>
<!-- Generator: Adobe Illustrator 16.0.0, SVG Export Plug-In . SVG Version: 6.00 Build 0)  -->
<!DOCTYPE svg PUBLIC "-//W3C//DTD SVG 1.1//EN" "http://www.w3.org/Graphics/SVG/1.1/DTD/svg11.dtd">
<svg version="1.1" xmlns="http://www.w3.org/2000/svg" xmlns:xlink="http://www.w3.org/1999/xlink" x="0px" y="0px" width="40px"
	 height="40px" viewBox="0 0 40 40" enable-background="new 0 0 40 40" xml:space="preserve">
<g id="Livello_1">
	<g>
		<defs>
			<rect id="SVGID_1_" width="40" height="40"/>
		</defs>
		<clipPath id="SVGID_2_">
			<use xlink:href="#SVGID_1_"  overflow="visible"/>
		</clipPath>
		<path clip-path="url(#SVGID_2_)" fill="#E41D22" d="M20,40.375c11.046,0,20-9.121,20-20.376C40,8.746,31.046-0.374,20-0.374
			c-11.045,0-20,9.12-20,20.373C0,31.254,8.955,40.375,20,40.375"/>
	</g>
	<g>
		<path fill="#FFFFFF" d="M14.615,15.886c0-0.719-0.206-1.301-0.616-1.746s-0.956-0.667-1.635-0.667
			c-0.788,0-1.398,0.252-1.83,0.755c-0.432,0.503-0.656,1.221-0.673,2.152H6.54c0.025-1.887,0.564-3.341,1.616-4.361
			s2.535-1.53,4.447-1.53c1.644,0,2.989,0.482,4.038,1.447s1.572,2.205,1.572,3.72c0,1.312-0.545,2.387-1.635,3.225l-0.49,0.33
			c0.419,0.161,0.788,0.372,1.107,0.635c1.048,0.821,1.572,2.057,1.572,3.707c0,1.819-0.568,3.263-1.705,4.329s-2.669,1.6-4.598,1.6
			c-1.987,0-3.528-0.527-4.623-1.58c-1.094-1.055-1.654-2.555-1.679-4.501h3.509c0.017,1.041,0.25,1.835,0.698,2.38
			c0.449,0.547,1.096,0.819,1.943,0.819c0.822,0,1.484-0.275,1.987-0.825c0.503-0.55,0.755-1.273,0.755-2.171
			c0-0.787-0.251-1.422-0.755-1.904c-0.444-0.415-1.006-0.647-1.686-0.698c-0.377-0.025-0.728-0.04-1.05-0.045
			c-0.323-0.004-0.53,0.007-0.623,0.032v-2.691c0.101,0.017,0.314,0.019,0.642,0.007c0.327-0.014,0.675-0.041,1.044-0.083
			c0.57-0.067,1.023-0.267,1.358-0.597C14.406,17.219,14.615,16.639,14.615,15.886z"/>
		<path fill="#FFFFFF" d="M30.427,19.174c0.402,0.203,0.78,0.448,1.132,0.736c1.157,0.956,1.736,2.222,1.736,3.796
			c0,1.735-0.581,3.132-1.742,4.189s-2.694,1.587-4.598,1.587c-1.896,0-3.424-0.529-4.585-1.587s-1.742-2.454-1.742-4.189
			c0-1.574,0.583-2.844,1.749-3.809c0.335-0.288,0.704-0.524,1.106-0.711l-0.704-0.47c-1.057-0.804-1.585-1.862-1.585-3.174
			c0-1.515,0.528-2.736,1.585-3.663s2.448-1.39,4.176-1.39s3.12,0.463,4.176,1.39c1.057,0.927,1.585,2.147,1.585,3.663
			c0,1.312-0.528,2.37-1.585,3.174C30.905,18.886,30.67,19.038,30.427,19.174z M26.955,20.786c-0.805,0-1.442,0.263-1.912,0.787
			s-0.704,1.231-0.704,2.12c0,0.872,0.234,1.563,0.704,2.076c0.47,0.512,1.107,0.768,1.912,0.768s1.444-0.256,1.918-0.768
			c0.474-0.513,0.711-1.204,0.711-2.076c0-0.889-0.239-1.596-0.717-2.12C28.397,21.049,27.76,20.786,26.955,20.786z M26.955,18.069
			c0.696,0,1.25-0.205,1.66-0.616c0.411-0.41,0.616-0.967,0.616-1.669c0-0.719-0.205-1.291-0.616-1.714
			c-0.41-0.423-0.964-0.635-1.66-0.635s-1.25,0.211-1.66,0.635c-0.411,0.423-0.616,0.995-0.616,1.714
			c0,0.702,0.205,1.261,0.616,1.676C25.705,17.866,26.259,18.069,26.955,18.069z"/>
	</g>
</g>
<g id="Livello_2">
</g>
</svg>
