<?xml version="1.0" encoding="utf-8"?>
<!-- Generator: Adobe Illustrator 16.0.0, SVG Export Plug-In . SVG Version: 6.00 Build 0)  -->
<!DOCTYPE svg PUBLIC "-//W3C//DTD SVG 1.1//EN" "http://www.w3.org/Graphics/SVG/1.1/DTD/svg11.dtd">
<svg version="1.1" xmlns="http://www.w3.org/2000/svg" xmlns:xlink="http://www.w3.org/1999/xlink" x="0px" y="0px" width="40px"
	 height="40px" viewBox="0 0 40 40" enable-background="new 0 0 40 40" xml:space="preserve">
<g id="Livello_1">
	<g>
		<defs>
			<rect id="SVGID_1_" width="40" height="40"/>
		</defs>
		<clipPath id="SVGID_2_">
			<use xlink:href="#SVGID_1_"  overflow="visible"/>
		</clipPath>
		<path clip-path="url(#SVGID_2_)" fill="#E41D22" d="M20,40.375c11.046,0,20-9.121,20-20.376C40,8.746,31.046-0.374,20-0.374
			c-11.045,0-20,9.12-20,20.373C0,31.254,8.955,40.375,20,40.375"/>
	</g>
	<g>
		<path fill="#FFFFFF" d="M14.615,15.886c0-0.719-0.206-1.301-0.616-1.746s-0.956-0.667-1.635-0.667
			c-0.788,0-1.398,0.252-1.83,0.755c-0.432,0.503-0.656,1.221-0.673,2.152H6.54c0.025-1.887,0.564-3.341,1.616-4.361
			s2.535-1.53,4.447-1.53c1.644,0,2.989,0.482,4.038,1.447s1.572,2.205,1.572,3.72c0,1.312-0.545,2.387-1.635,3.225l-0.49,0.33
			c0.419,0.161,0.788,0.372,1.107,0.635c1.048,0.821,1.572,2.057,1.572,3.707c0,1.819-0.568,3.263-1.705,4.329s-2.669,1.6-4.598,1.6
			c-1.987,0-3.528-0.527-4.623-1.58c-1.094-1.055-1.654-2.555-1.679-4.501h3.509c0.017,1.041,0.25,1.835,0.698,2.38
			c0.449,0.547,1.096,0.819,1.943,0.819c0.822,0,1.484-0.275,1.987-0.825c0.503-0.55,0.755-1.273,0.755-2.171
			c0-0.787-0.251-1.422-0.755-1.904c-0.444-0.415-1.006-0.647-1.686-0.698c-0.377-0.025-0.728-0.04-1.05-0.045
			c-0.323-0.004-0.53,0.007-0.623,0.032v-2.691c0.101,0.017,0.314,0.019,0.642,0.007c0.327-0.014,0.675-0.041,1.044-0.083
			c0.57-0.067,1.023-0.267,1.358-0.597C14.406,17.219,14.615,16.639,14.615,15.886z"/>
		<path fill="#FFFFFF" d="M26.276,29.47c-1.535,0-2.791-0.444-3.768-1.333c-0.978-0.889-1.499-2.057-1.566-3.504h3.56
			c-0.008,0.575,0.162,1.037,0.51,1.384s0.812,0.521,1.39,0.521h0.177c1.073,0.009,1.869-0.512,2.39-1.562
			c0.402-0.821,0.654-2.027,0.755-3.618c-0.998,1.041-2.188,1.562-3.572,1.562c-1.636,0-2.976-0.564-4.02-1.693
			c-1.043-1.128-1.566-2.576-1.566-4.344c0-1.876,0.591-3.411,1.774-4.604c1.183-1.192,2.704-1.788,4.566-1.788
			c2.07,0,3.646,0.78,4.723,2.341c1.078,1.561,1.616,3.842,1.616,6.845c0,3.307-0.595,5.793-1.786,7.46
			c-1.106,1.564-2.708,2.347-4.805,2.347L26.276,29.47z M29.647,16.793c0-0.971-0.261-1.778-0.78-2.42
			c-0.521-0.642-1.174-0.963-1.962-0.963c-0.897,0-1.579,0.287-2.045,0.862c-0.465,0.574-0.697,1.415-0.697,2.521
			c0,0.963,0.251,1.738,0.754,2.325c0.504,0.588,1.166,0.881,1.988,0.881c0.821,0,1.483-0.296,1.987-0.887
			C29.396,18.529,29.647,17.756,29.647,16.793z"/>
	</g>
</g>
<g id="Livello_2">
</g>
</svg>
