<?xml version="1.0" encoding="utf-8"?>
<!-- Generator: Adobe Illustrator 16.0.0, SVG Export Plug-In . SVG Version: 6.00 Build 0)  -->
<!DOCTYPE svg PUBLIC "-//W3C//DTD SVG 1.1//EN" "http://www.w3.org/Graphics/SVG/1.1/DTD/svg11.dtd">
<svg version="1.1" xmlns="http://www.w3.org/2000/svg" xmlns:xlink="http://www.w3.org/1999/xlink" x="0px" y="0px" width="40px"
	 height="40px" viewBox="0 0 40 40" enable-background="new 0 0 40 40" xml:space="preserve">
<g id="Livello_1">
	<g>
		<defs>
			<rect id="SVGID_1_" width="40" height="40"/>
		</defs>
		<clipPath id="SVGID_2_">
			<use xlink:href="#SVGID_1_"  overflow="visible"/>
		</clipPath>
		<path clip-path="url(#SVGID_2_)" fill="#E41D22" d="M20,40.375c11.046,0,20-9.121,20-20.376C40,8.746,31.046-0.374,20-0.374
			c-11.045,0-20,9.12-20,20.373C0,31.254,8.955,40.375,20,40.375"/>
	</g>
	<g>
		<path fill="#FFFFFF" d="M6.307,24.925v-1.574v-1.574l6.78-11.286h2.013h2.013v11.54h2.063v2.895h-2.063V29h-3.547v-4.075H6.307z
			 M13.564,22.03v-7.708l-4.45,7.454L8.964,22.03H13.564z"/>
		<path fill="#FFFFFF" d="M33.111,16.305c0,1.405-0.324,2.568-0.975,3.491s-1.867,1.959-3.654,3.11
			c-1.652,1.058-2.779,2.015-3.383,2.869l-0.014,0.025h8.025V29H20.608v-0.003c0-1.692,0.423-3.144,1.271-4.354
			c0.848-1.209,2.439-2.644,4.779-4.302c1.049-0.736,1.787-1.411,2.215-2.025c0.428-0.613,0.641-1.297,0.641-2.05
			c0-0.821-0.234-1.481-0.703-1.98c-0.471-0.5-1.092-0.749-1.861-0.749c-0.822,0-1.465,0.313-1.926,0.939s-0.676,1.478-0.641,2.552
			h-3.535c-0.059-2.006,0.463-3.597,1.566-4.773c1.102-1.176,2.623-1.765,4.559-1.765c1.803,0,3.279,0.542,4.428,1.625
			C32.541,13.199,33.111,14.595,33.111,16.305z"/>
	</g>
</g>
<g id="Livello_2">
</g>
</svg>
