<?xml version="1.0" encoding="utf-8"?>
<!-- Generator: Adobe Illustrator 16.0.0, SVG Export Plug-In . SVG Version: 6.00 Build 0)  -->
<!DOCTYPE svg PUBLIC "-//W3C//DTD SVG 1.1//EN" "http://www.w3.org/Graphics/SVG/1.1/DTD/svg11.dtd">
<svg version="1.1" xmlns="http://www.w3.org/2000/svg" xmlns:xlink="http://www.w3.org/1999/xlink" x="0px" y="0px" width="40px"
	 height="40px" viewBox="0 0 40 40" enable-background="new 0 0 40 40" xml:space="preserve">
<g id="Livello_1">
	<g>
		<defs>
			<rect id="SVGID_1_" width="40" height="40"/>
		</defs>
		<clipPath id="SVGID_2_">
			<use xlink:href="#SVGID_1_"  overflow="visible"/>
		</clipPath>
		<path clip-path="url(#SVGID_2_)" fill="#E41D22" d="M20,40.375c11.046,0,20-9.121,20-20.376C40,8.746,31.046-0.374,20-0.374
			c-11.045,0-20,9.12-20,20.373C0,31.254,8.955,40.375,20,40.375"/>
	</g>
	<g>
		<path fill="#FFFFFF" d="M6.307,24.925v-1.574v-1.574l6.78-11.286h2.013h2.013v11.54h2.063v2.895h-2.063V29h-3.547v-4.075H6.307z
			 M13.564,22.03v-7.708l-4.45,7.454L8.964,22.03H13.564z"/>
		<path fill="#FFFFFF" d="M29.086,15.886c0-0.719-0.205-1.301-0.615-1.746c-0.412-0.444-0.957-0.667-1.635-0.667
			c-0.789,0-1.398,0.252-1.832,0.755c-0.432,0.503-0.656,1.221-0.672,2.152h-3.32c0.024-1.887,0.563-3.341,1.615-4.361
			c1.053-1.02,2.535-1.53,4.447-1.53c1.643,0,2.99,0.482,4.037,1.447c1.049,0.965,1.572,2.205,1.572,3.72
			c0,1.312-0.545,2.387-1.635,3.225l-0.49,0.33c0.42,0.161,0.787,0.372,1.107,0.635c1.047,0.821,1.572,2.057,1.572,3.707
			c0,1.819-0.568,3.263-1.705,4.329s-2.668,1.6-4.598,1.6c-1.986,0-3.527-0.527-4.623-1.58c-1.094-1.055-1.654-2.555-1.679-4.501
			h3.509c0.018,1.041,0.25,1.835,0.699,2.38c0.447,0.547,1.096,0.819,1.943,0.819c0.822,0,1.484-0.275,1.986-0.825
			c0.504-0.55,0.756-1.273,0.756-2.171c0-0.787-0.252-1.422-0.756-1.904c-0.443-0.415-1.006-0.647-1.686-0.698
			c-0.377-0.025-0.727-0.04-1.049-0.045c-0.324-0.004-0.531,0.007-0.623,0.032v-2.691c0.1,0.017,0.314,0.019,0.641,0.007
			c0.328-0.014,0.676-0.041,1.045-0.083c0.57-0.067,1.023-0.267,1.357-0.597C28.877,17.219,29.086,16.639,29.086,15.886z"/>
	</g>
</g>
<g id="Livello_2">
</g>
</svg>
