<?xml version="1.0" encoding="utf-8"?>
<!-- Generator: Adobe Illustrator 16.0.0, SVG Export Plug-In . SVG Version: 6.00 Build 0)  -->
<!DOCTYPE svg PUBLIC "-//W3C//DTD SVG 1.1//EN" "http://www.w3.org/Graphics/SVG/1.1/DTD/svg11.dtd">
<svg version="1.1" id="Livello_1" xmlns="http://www.w3.org/2000/svg" xmlns:xlink="http://www.w3.org/1999/xlink" x="0px" y="0px"
	 width="100px" height="100px" viewBox="0 0 100 100" enable-background="new 0 0 100 100" xml:space="preserve">
<g>
	<defs>
		<rect id="SVGID_1_" x="1.656" y="2.166" width="96.688" height="95.167"/>
	</defs>
	<clipPath id="SVGID_2_">
		<use xlink:href="#SVGID_1_"  overflow="visible"/>
	</clipPath>
	<path clip-path="url(#SVGID_2_)" fill="#007B3C" d="M50,2.166c-26.7,0-48.345,21.305-48.345,47.584
		c0,9.152,2.627,17.703,7.177,24.957c0.017,0.025,0.035,0.055,0.051,0.079L3.917,92.625l17.128-4.771
		C29.117,93.806,39.14,97.332,50,97.332c26.701,0,48.343-21.304,48.343-47.582C98.344,23.47,76.701,2.166,50,2.166"/>
	<path clip-path="url(#SVGID_2_)" fill="#FFFFFF" d="M50.073,15.39c-5.075,0-9.19,4.069-9.19,9.085c0,5.016,4.115,9.085,9.19,9.085
		c5.074,0,9.189-4.069,9.189-9.085C59.262,19.459,55.146,15.39,50.073,15.39"/>
</g>
<polygon fill="#FFFFFF" points="38.134,68.292 42.764,68.292 42.764,47.454 38.134,47.454 38.134,37.612 58.105,37.612 
	58.105,68.292 61.866,68.292 61.866,80.474 38.134,80.474 "/>
</svg>
