<?xml version="1.0" encoding="utf-8"?>
<!-- Generator: Adobe Illustrator 16.0.0, SVG Export Plug-In . SVG Version: 6.00 Build 0)  -->
<!DOCTYPE svg PUBLIC "-//W3C//DTD SVG 1.1//EN" "http://www.w3.org/Graphics/SVG/1.1/DTD/svg11.dtd">
<svg version="1.1" xmlns="http://www.w3.org/2000/svg" xmlns:xlink="http://www.w3.org/1999/xlink" x="0px" y="0px" width="40px"
	 height="40px" viewBox="0 0 40 40" enable-background="new 0 0 40 40" xml:space="preserve">
<g id="Livello_1" display="none">
	<g display="inline">
		<defs>
			<rect id="SVGID_1_" width="40" height="40"/>
		</defs>
		<clipPath id="SVGID_2_">
			<use xlink:href="#SVGID_1_"  overflow="visible"/>
		</clipPath>
		<path clip-path="url(#SVGID_2_)" fill="#E41D22" d="M20,40.375c11.046,0,20-9.121,20-20.376C40,8.746,31.046-0.374,20-0.374
			c-11.045,0-20,9.12-20,20.373C0,31.254,8.955,40.375,20,40.375"/>
	</g>
	<g display="inline">
		<path fill="#FFFFFF" d="M18.633,16.305c0,1.405-0.325,2.568-0.975,3.491c-0.65,0.923-1.868,1.959-3.654,3.11
			c-1.652,1.058-2.78,2.015-3.384,2.869l-0.013,0.025h8.025V29H6.13v-0.003c0-1.692,0.423-3.144,1.271-4.354
			c0.847-1.209,2.44-2.644,4.78-4.302c1.048-0.736,1.786-1.411,2.214-2.025c0.427-0.613,0.641-1.297,0.641-2.05
			c0-0.821-0.235-1.481-0.704-1.98c-0.47-0.5-1.09-0.749-1.862-0.749c-0.822,0-1.463,0.313-1.924,0.939
			c-0.461,0.626-0.675,1.478-0.642,2.552H6.369c-0.059-2.006,0.463-3.597,1.566-4.773s2.623-1.765,4.56-1.765
			c1.803,0,3.278,0.542,4.428,1.625C18.063,13.199,18.633,14.595,18.633,16.305z"/>
		<path fill="#FFFFFF" d="M22.18,27.178c-1.031-1.535-1.551-3.899-1.559-7.09c0.008-3.267,0.528-5.683,1.559-7.249
			c1.033-1.566,2.621-2.349,4.768-2.349c2.164,0,3.762,0.783,4.793,2.349s1.547,3.952,1.547,7.16v0.089
			c0.008,3.19-0.504,5.555-1.541,7.09c-1.035,1.537-2.635,2.305-4.799,2.305C24.801,29.482,23.213,28.715,22.18,27.178z
			 M28.986,25.077c0.393-0.974,0.59-2.645,0.59-5.015c0.01-2.429-0.186-4.141-0.584-5.135s-1.08-1.492-2.045-1.492
			c-0.955,0-1.629,0.497-2.018,1.492c-0.391,0.995-0.59,2.707-0.598,5.135c0,2.37,0.197,4.041,0.59,5.015
			c0.395,0.974,1.07,1.46,2.025,1.46C27.912,26.537,28.592,26.051,28.986,25.077z"/>
	</g>
</g>
<g id="Livello_3">
	<g>
		<g>
			<defs>
				<polygon id="SVGID_3_" points="0.209,39.576 39.791,39.576 39.791,0.834 0.209,0.424 				"/>
			</defs>
			<clipPath id="SVGID_4_">
				<use xlink:href="#SVGID_3_"  overflow="visible"/>
			</clipPath>
			<path clip-path="url(#SVGID_4_)" fill="#007B3C" d="M20,0.424C9.071,0.424,0.209,9.187,0.209,20
				c0,3.765,1.076,7.282,2.938,10.271c0.008,0.009,0.016,0.019,0.021,0.03l-2.031,7.338l7.01-1.962
				c3.303,2.447,7.407,3.899,11.854,3.899c10.929,0,19.791-8.767,19.791-19.576C39.791,9.187,30.93,0.424,20,0.424"/>
			<path clip-path="url(#SVGID_4_)" fill="#FFFFFF" d="M20.03,5.866c-2.078,0-3.762,1.671-3.762,3.736
				c0,2.063,1.684,3.734,3.762,3.734c2.078,0,3.761-1.672,3.761-3.734C23.791,7.537,22.107,5.866,20.03,5.866"/>
		</g>
		<polygon fill="#FFFFFF" points="15.143,28.766 17.038,28.766 17.038,20.191 15.143,20.191 15.143,16.144 23.318,16.144 
			23.318,28.766 24.859,28.766 24.859,33.776 15.143,33.776 		"/>
	</g>
</g>
<g id="Livello_2">
</g>
</svg>
